HIERARCHY
ROOT ROOT
{
	OFFSET 0.000000 56.020000 -5.659234
	CHANNELS 6 Xposition Yposition Zposition Xrotation Yrotation Zrotation 
	JOINT C_spine0001_bind_JNT
	{
		OFFSET 0.000000 1.618999 0.000000
		CHANNELS 3 Xrotation Yrotation Zrotation
		JOINT C_spine0002_bind_JNT
		{
			OFFSET 0.000000 4.942001 0.000001
			CHANNELS 3 Xrotation Yrotation Zrotation
			JOINT C_spine0003_bind_JNT
			{
				OFFSET 0.000000 4.942001 -0.000000
				CHANNELS 3 Xrotation Yrotation Zrotation
				JOINT C_neck0001_bind_JNT
				{
					OFFSET 0.000000 17.026009 -0.000000
					CHANNELS 3 Xrotation Yrotation Zrotation
					JOINT C_neck0002_bind_JNT
					{
						OFFSET 0.000000 3.249985 0.000000
						CHANNELS 3 Xrotation Yrotation Zrotation
						JOINT C_head_bind_JNT
						{
							OFFSET 0.000000 5.278008 0.000000
							CHANNELS 3 Xrotation Yrotation Zrotation
							End Site
							{
								OFFSET 0.000000 0.000000 0.000000
							}
						}
					}
				}
				JOINT L_clavicle_bind_JNT
				{
					OFFSET 4.590000 12.067001 0.834000
					CHANNELS 3 Xrotation Yrotation Zrotation
					JOINT L_armUpper0001_bind_JNT
					{
						OFFSET 7.812635 0.512001 -3.452945
						CHANNELS 3 Xrotation Yrotation Zrotation
						JOINT L_armLower0001_bind_JNT
						{
							OFFSET 15.265892 -6.552116 -0.058157
							CHANNELS 3 Xrotation Yrotation Zrotation
							JOINT L_hand0001_bind_JNT
							{
								OFFSET 14.747667 -6.369995 5.049225
								CHANNELS 3 Xrotation Yrotation Zrotation
								End Site
								{
									OFFSET 0.000000 0.000000 0.000000
								}
							}
						}
					}
				}
				JOINT R_clavicle_bind_JNT
				{
					OFFSET -4.590000 12.067001 0.834000
					CHANNELS 3 Xrotation Yrotation Zrotation
					JOINT R_armUpper0001_bind_JNT
					{
						OFFSET -7.812635 0.512001 -3.452945
						CHANNELS 3 Xrotation Yrotation Zrotation
						JOINT R_armLower0001_bind_JNT
						{
							OFFSET -15.265890 -6.552124 -0.058160
							CHANNELS 3 Xrotation Yrotation Zrotation
							JOINT R_hand0001_bind_JNT
							{
								OFFSET -14.746784 -6.369629 5.048937
								CHANNELS 3 Xrotation Yrotation Zrotation
								End Site
								{
									OFFSET 0.000000 0.000000 0.000000
								}
							}
						}
					}
				}
			}
		}
	}
	JOINT C_pelvis0001_bind_JNT
	{
		OFFSET -0.000000 0.000000 0.000000
		CHANNELS 3 Xrotation Yrotation Zrotation
		JOINT L_legUpper0001_bind_JNT
		{
			OFFSET 6.599999 -6.027000 0.539000
			CHANNELS 3 Xrotation Yrotation Zrotation
			JOINT L_legLower0001_bind_JNT
			{
				OFFSET -0.140713 -19.187443 0.040261
				CHANNELS 3 Xrotation Yrotation Zrotation
				JOINT L_foot0001_bind_JNT
				{
					OFFSET -0.132215 -18.028637 -1.138370
					CHANNELS 3 Xrotation Yrotation Zrotation
					JOINT L_foot0002_bind_JNT
					{
						OFFSET 0.007014 -4.693133 9.886524
						CHANNELS 3 Xrotation Yrotation Zrotation
						End Site
						{
							OFFSET 0.000000 0.000000 0.000000
						}
					}
				}
			}
		}
		JOINT R_legUpper0001_bind_JNT
		{
			OFFSET -6.599999 -6.027000 0.539000
			CHANNELS 3 Xrotation Yrotation Zrotation
			JOINT R_legLower0001_bind_JNT
			{
				OFFSET 0.140710 -19.187164 0.040550
				CHANNELS 3 Xrotation Yrotation Zrotation
				JOINT R_foot0001_bind_JNT
				{
					OFFSET 0.132215 -18.028633 -1.138362
					CHANNELS 3 Xrotation Yrotation Zrotation
					JOINT R_foot0002_bind_JNT
					{
						OFFSET -0.007014 -4.693128 9.886505
						CHANNELS 3 Xrotation Yrotation Zrotation
						End Site
						{
							OFFSET 0.000000 0.000000 0.000000
						}
					}
				}
			}
		}
	}
}
MOTION
Frames: 8
Frame Time: 0.033333
0.000000 47.777699 0.000000 -0.033523 2.197525 -0.059550 1.000564 -2.141007 -0.409614 -5.130990 0.120401 1.694479 4.257977 0.301615 2.999693 14.207171 -0.454458 0.465828 0.111359 -0.249444 0.010248 -9.304716 0.017370 0.997488 16.637165 2.160160 10.350556 -26.324659 -0.495264 -74.059265 8.908024 17.678061 -2.337972 -3.083289 -12.700879 -25.961857 6.959113 -0.651754 -7.314979 -18.825281 4.249567 69.300331 13.012379 -21.186695 3.658015 0.182999 14.900934 21.100576 1.366489 -2.036523 -2.835572 -14.268286 8.002872 9.600371 12.953321 -1.089867 0.388197 -2.201627 -10.622404 -7.661645 -0.834885 -1.571066 -1.549974 1.057583 3.217336 7.419494 2.347105 -1.476254 0.488166 -4.000420 0.977637 -4.228492 -1.837657 0.256888 -1.242081
-0.195702 47.858097 0.005084 0.015430 2.487686 -0.016920 0.860366 -2.792370 -0.590877 -5.130500 0.005690 1.640852 3.740490 0.138810 2.942327 14.690763 0.172710 0.234056 -0.042536 -0.079177 0.035596 -9.701614 0.317723 1.222448 17.788191 2.121872 10.432197 -25.892035 0.554099 -74.144325 7.986260 16.933199 -1.325004 -2.847126 -12.598682 -26.119015 7.020588 -0.192211 -6.805696 -17.881891 4.189305 68.985222 12.184566 -20.598074 3.435081 0.368673 14.205997 21.116003 1.506521 -3.030154 -3.196115 -14.925607 8.650070 9.823813 13.820080 -0.590757 0.627588 -2.931914 -10.835205 -8.272929 -0.600687 -1.330214 -1.113036 0.490691 3.758224 8.011373 2.169621 -1.454604 0.415544 -3.559990 0.727843 -4.975568 -1.829796 0.317879 -1.244236
-0.384211 47.783703 -0.022303 0.007927 2.211070 -0.013512 0.832635 -2.567328 -0.619191 -5.268460 -0.109520 1.573788 4.018722 0.161222 2.842540 14.498599 0.269412 0.377009 -0.043724 -0.067850 -0.085612 -9.900259 0.227812 1.233617 17.507307 1.899644 10.400587 -25.700184 0.883850 -74.036362 8.268450 16.891813 -1.526214 -3.015891 -13.009455 -25.872585 6.953691 -0.378176 -6.998959 -18.094751 4.394503 69.349586 11.791875 -20.552086 3.039777 0.897606 14.237003 20.988991 1.214932 -2.902098 -3.336507 -15.139930 8.705835 9.909956 13.906004 -0.815884 0.598072 -2.576679 -10.730276 -7.967584 -0.439995 -1.423705 -1.212487 0.924059 4.064838 8.476173 1.848155 -1.383824 0.484392 -3.590851 0.784703 -5.271228 -1.642338 0.319457 -1.330696
-0.489300 47.754887 -0.067766 0.020256 2.185704 -0.017376 0.744456 -2.582947 -0.565491 -5.157819 -0.135416 1.541695 3.864985 0.128149 2.790701 14.485234 0.252215 0.463141 0.001674 0.049018 -0.159706 -9.832541 0.208172 1.334349 17.466331 1.789772 10.555918 -25.565836 1.011861 -74.177872 8.210890 17.057247 -1.367849 -2.935825 -13.190641 -25.942751 6.962521 -0.361469 -6.989851 -18.238085 4.415792 69.363297 12.075789 -20.621584 3.015184 0.718623 14.236396 21.115644 1.195917 -2.807170 -3.242290 -15.036469 8.640004 10.023444 13.612604 -0.867778 0.479548 -2.524700 -10.565422 -8.075950 -0.303154 -1.504039 -1.173715 0.853884 3.997413 8.453587 1.753060 -1.285646 0.555506 -3.385118 0.685183 -5.438626 -1.606927 0.411070 -1.284520
-0.531947 47.734486 -0.084236 0.014472 2.268516 -0.012700 0.687657 -2.669012 -0.520528 -5.176268 -0.141634 1.520460 3.889288 0.092202 2.782151 14.575430 0.287455 0.437421 -0.086609 -0.014149 -0.058022 -9.854216 0.381314 1.351129 17.399084 1.732609 10.463486 -25.506151 0.997349 -74.152504 8.393005 17.085295 -1.444780 -2.858693 -13.214579 -25.943413 6.951838 -0.388157 -7.094655 -18.232998 4.454852 69.508247 12.103099 -20.636288 2.829241 0.647447 14.398461 21.056299 1.190384 -2.915400 -3.203746 -14.920323 8.877105 10.050724 13.427941 -1.106654 0.468654 -2.440076 -10.571317 -8.021586 -0.321271 -1.382699 -1.188140 0.904912 4.171010 8.443629 1.595969 -1.353153 0.586505 -3.286360 0.652918 -5.385897 -1.582941 0.399275 -1.394757
-0.556702 47.747601 -0.088489 0.013623 2.306762 -0.015435 0.672003 -2.760882 -0.481681 -5.129315 -0.106413 1.496215 3.793259 0.091312 2.792174 14.517020 0.240453 0.501167 -0.041466 -0.036340 -0.134942 -9.824483 0.258832 1.410575 17.425859 1.617472 10.506565 -25.426168 1.100466 -74.206863 8.466434 17.168623 -1.548114 -2.807266 -13.222739 -25.934748 7.037398 -0.347907 -7.182011 -18.266323 4.447506 69.522697 12.124935 -20.569181 2.773767 0.611620 14.379558 21.205502 1.251090 -3.018078 -3.226888 -14.841907 8.866425 10.048000 13.246013 -1.154284 0.460974 -2.399823 -10.573555 -8.080144 -0.361859 -1.381261 -1.112848 0.947708 4.144197 8.539605 1.460590 -1.351564 0.532696 -3.273001 0.690103 -5.438133 -1.579610 0.461344 -1.359883
-0.587323 47.790283 -0.099130 0.012817 2.474749 -0.016008 0.643720 -2.935467 -0.449234 -5.166132 -0.129238 1.537445 3.808797 0.105831 2.767743 14.537186 0.226174 0.507747 -0.074985 -0.064038 -0.119367 -9.827659 0.260044 1.414243 17.423244 1.577940 10.443805 -25.405016 1.163437 -74.096222 8.532390 17.308935 -1.704478 -2.696131 -13.252198 -26.020493 7.016064 -0.355786 -7.256938 -18.151297 4.481472 69.476814 12.145061 -20.564482 2.876538 0.472528 14.329323 21.233507 1.292125 -3.190957 -3.130679 -14.677387 8.872098 10.001408 13.077564 -1.177774 0.398882 -2.376255 -10.563197 -8.109124 -0.401801 -1.390692 -1.119963 0.823301 4.062757 8.507967 1.478269 -1.330895 0.499861 -3.214757 0.770502 -5.445535 -1.560853 0.434310 -1.322969
-0.601293 47.799320 -0.088742 0.014071 2.440253 -0.013619 0.639451 -2.915600 -0.432587 -5.170609 -0.100675 1.525420 3.786422 0.064946 2.777245 14.531819 0.220801 0.492650 -0.072028 -0.023612 -0.135237 -9.823065 0.172803 1.399882 17.453859 1.585806 10.403331 -25.403095 1.226302 -74.120377 8.526219 17.397003 -1.717238 -2.636018 -13.211725 -26.156363 7.052521 -0.271874 -7.371196 -18.024548 4.465495 69.527077 12.114943 -20.689604 2.909880 0.468530 14.314536 21.305517 1.269441 -3.174783 -3.079868 -14.526640 8.958374 9.914912 12.941283 -1.286013 0.428919 -2.409713 -10.551529 -8.109877 -0.407838 -1.362545 -1.138225 0.950548 4.149703 8.463569 1.356503 -1.517957 0.508807 -3.202707 0.893176 -5.484406 -1.570769 0.454658 -1.254598
